<svg xmlns="http://www.w3.org/2000/svg" xmlns:xlink="http://www.w3.org/1999/xlink" version="1.1" x="0px" y="0px" viewBox="0 0 100 100" enable-background="new 0 0 100 100" xml:space="preserve"><g><g><path fill-rule="evenodd" clip-rule="evenodd" d="M61.25,34.278c-4.943,0-14.058,7.298-21.571,16.701    c-3.629-3.387-7.084-5.561-9.366-5.561C23.282,45.418,5,70.915,5,84.405c0,5.57,8.52,5.57,22.5,5.57c0.617,0,1.234,0,1.85-0.001    h20.233c3.636,0.057,7.566,0.001,11.668,0.001c18.64,0,33.75,0,33.75-5.57C95,67.316,70.66,34.278,61.25,34.278z M15,30    c5.523,0,10-4.477,10-10s-4.477-10-10-10C9.477,10,5,14.477,5,20S9.477,30,15,30z"></path></g></g></svg>