<svg viewBox="0 0 88 56" xmlns="http://www.w3.org/2000/svg" width="176" height="112">
  <circle cx="44" cy="28" r="22" fill="none" stroke="#EFF1F4"></circle>
  <path d="M 44 28 L 44.00 8.00 A 20 20 0 0 1 56.01 12.01 Z" fill="#1FC9B0" opacity="0.95"></path>
  <path d="M 44 28 L 53.19 18.81 A 13 13 0 0 1 56.87 26.17 Z" fill="#2A6FDB" opacity="0.80"></path>
  <path d="M 44 28 L 62.00 28.00 A 18 18 0 0 1 58.39 38.81 Z" fill="#1FC9B0" opacity="0.91"></path>
  <path d="M 44 28 L 51.78 35.78 A 11 11 0 0 1 45.55 38.89 Z" fill="#2A6FDB" opacity="0.75"></path>
  <path d="M 44 28 L 44.00 50.00 A 22 22 0 0 1 30.79 45.59 Z" fill="#1FC9B0" opacity="1.00"></path>
  <path d="M 44 28 L 33.39 38.61 A 15 15 0 0 1 29.15 30.11 Z" fill="#2A6FDB" opacity="0.84"></path>
  <path d="M 44 28 L 25.00 28.00 A 19 19 0 0 1 28.81 16.59 Z" fill="#1FC9B0" opacity="0.93"></path>
  <path d="M 44 28 L 35.51 19.51 A 12 12 0 0 1 42.31 16.12 Z" fill="#2A6FDB" opacity="0.77"></path>
</svg>